<?xml version="1.0" encoding="UTF-8" standalone="no"?>
<svg
   xmlns:dc="http://purl.org/dc/elements/1.1/"
   xmlns:cc="http://creativecommons.org/ns#"
   xmlns:rdf="http://www.w3.org/1999/02/22-rdf-syntax-ns#"
   xmlns:svg="http://www.w3.org/2000/svg"
   xmlns="http://www.w3.org/2000/svg"
   id="svg8"
   version="1.1"
   viewBox="0 0 135.46666 135.46667"
   height="512"
   width="512">
  <defs
     id="defs2" />
  <metadata
     id="metadata5">
    <rdf:RDF>
      <cc:Work
         rdf:about="">
        <dc:format>image/svg+xml</dc:format>
        <dc:type
           rdf:resource="http://purl.org/dc/dcmitype/StillImage" />
        <dc:title></dc:title>
      </cc:Work>
    </rdf:RDF>
  </metadata>
  <g
     transform="translate(0,-161.53332)"
     id="layer1">
    <text
       id="text4520"
       y="205.59381"
       x="16.83798"
       style="font-style:normal;font-weight:normal;font-size:10.58333302px;line-height:1.25;font-family:sans-serif;letter-spacing:0px;word-spacing:0px;fill:#000000;fill-opacity:1;stroke:none;stroke-width:0.26458332"
       xml:space="preserve"><tspan
         style="stroke-width:0.26458332"
         y="216.22882"
         x="16.83798"
         id="tspan4518" /></text>
    <path
       id="path4522"
       d="m 21.916101,180.73774 c 11.75986,-11.22532 65.877182,-10.55472 82.051749,-6.94901 20.57041,4.58566 18.97614,26.99422 6.1472,22.98518 -24.460689,-7.64394 -48.108521,-4.27631 -55.859336,1.06908 -7.750818,5.34539 -9.042179,17.55349 1.603615,21.9161 9.02198,3.69718 39.982417,-3.8459 56.126611,-10e-6 11.19945,2.66795 16.17418,14.59682 -1.60362,20.04523 -16.583238,5.08231 -47.749409,-1.36847 -53.72118,3.47449 -9.119637,7.3958 -1.06908,21.1143 10.95805,22.45065 13.692437,1.52138 34.2105,-2.6727 45.16855,-4.54358 10.95805,-1.87089 17.10525,20.57975 -6.68173,23.51971 -23.786996,2.93997 -68.688277,2.6727 -83.120832,-14.16528 C 8.7054086,253.88057 9.0871638,191.96306 21.916101,180.73774 Z"
       style="fill:#668000;fill-opacity:1;stroke:#000000;stroke-width:1.86500001;stroke-linecap:butt;stroke-linejoin:miter;stroke-miterlimit:4;stroke-dasharray:none;stroke-opacity:1" />
  </g>
</svg>
